<?xml version="1.0" encoding="utf-8"?>
<!-- Generator: Adobe Illustrator 22.1.0, SVG Export Plug-In . SVG Version: 6.00 Build 0)  -->
<svg version="1.1" id="Layer_1" xmlns="http://www.w3.org/2000/svg" xmlns:xlink="http://www.w3.org/1999/xlink" x="0px" y="0px"
	 viewBox="0 0 156 35" style="enable-background:new 0 0 156 35;" xml:space="preserve">
<style type="text/css">
	.st0{fill:#99C6C7;}
	.st1{fill:#FFFFFF;}
</style>
<g>
	<path class="st0" d="M66,22.8c0.2,2,1.3,3,3,3c1.5,0,2.2-0.7,2.5-1.5h5.7c-0.6,3.6-3.4,5.6-8.4,5.6c-5.2,0-9-2.9-9-8.3v-0.2
		c0-5.3,4-8.5,9-8.5c4.6,0,8.5,2.6,8.5,8.4v1.5H66z M66,19.6h5.4c-0.1-1.7-0.9-2.8-2.6-2.8C67.3,16.8,66.3,17.8,66,19.6z"/>
	<path class="st0" d="M48.1,13.4h6.1v3.3c1-2.5,2.8-3.5,5.2-3.5v5.7c-3.4-0.2-5.2,0.9-5.2,3.3v7.5h-6.1V13.4z"/>
	<path class="st0" d="M78,21.7v-0.3c0-5.5,3.9-8.5,8.8-8.5c4.1,0,7.8,1.7,8.1,6.8h-5.8c-0.2-1.3-0.7-2.1-2.2-2.1
		c-1.8,0-2.7,1.2-2.7,3.7v0.2c0,2.6,0.9,4,2.8,4c1.4,0,2.3-0.9,2.5-2.4h5.5c-0.2,4.2-2.9,6.9-8.4,6.9C81.8,30,78,27.2,78,21.7
		L78,21.7z M103.6,13.4h6.1v2.4c0.9-1.5,2.5-2.8,5-2.8c3.7,0,6.8,2.8,6.8,8.4v0.2c0,5.7-3.1,8.4-6.8,8.4c-2.4,0-4.1-1.1-4.9-2.7V35
		h-6.1V13.4z M115.3,21.6v-0.2c0-2.6-1.1-3.8-2.9-3.8c-1.8,0-2.8,1.4-2.8,3.8v0.2c0,2.5,1,3.8,2.9,3.8
		C114.3,25.3,115.3,24,115.3,21.6z M139.8,24.4h5.6c0.2,1.1,0.6,1.7,2,1.7c1.2,0,1.7-0.5,1.7-1.1c0-0.7-0.7-1.1-2.9-1.4
		c-4.4-0.5-6.3-1.7-6.3-5.1c0-3.7,3.3-5.5,7.2-5.5c4.2,0,7.1,1.4,7.4,5.4h-5.5c-0.2-1-0.7-1.5-1.8-1.5c-1.1,0-1.6,0.5-1.6,1.1
		c0,0.7,0.7,1.1,2.6,1.2c4.7,0.6,6.9,1.7,6.9,5.2c0,4-3,5.7-7.7,5.7C142.7,30,139.9,28,139.8,24.4L139.8,24.4z M128.2,22.8
		c0.2,2,1.3,3,3,3c1.5,0,2.2-0.7,2.5-1.5h5.7c-0.6,3.6-3.4,5.6-8.4,5.6c-5.2,0-9-2.9-9-8.3v-0.2c0-5.3,4-8.5,9-8.5
		c4.6,0,8.5,2.6,8.5,8.4v1.5H128.2z M128.2,19.6h5.4c-0.1-1.7-0.9-2.8-2.6-2.8C129.5,16.8,128.4,17.8,128.2,19.6z"/>
	<polygon class="st0" points="96.1,29.8 102.2,29.8 102.2,13.6 96.1,13.6 	"/>
	<path class="st0" d="M99.2,12.1c3.3,0,5.9-2.6,5.9-5.9c0-3.3-2.7-5.9-5.9-5.9s-5.9,2.6-5.9,5.9C93.3,9.4,96,12.1,99.2,12.1"/>
	<path class="st1" d="M0,13.5h5.8V16c1-1.5,2.9-2.9,5.7-2.9c2.4,0,4,0.9,4.8,2.6c1.6-1.8,3.7-2.6,5.9-2.6c3.4,0,5.8,2,5.8,5.8v10.5
		h-5.9v-9.9c0-1.4-1.3-2.2-2.6-2.2c-1.5,0-2.7,1.1-2.7,2.6v9.5h-5.9v-9.9c0-1.4-1.3-2.2-2.5-2.2c-1.5,0-2.7,1.1-2.7,2.6v9.5H0V13.5z
		"/>
	<polygon class="st1" points="40.2,13.6 37.6,19.2 34.5,13.6 27.9,13.6 34.4,24 31.5,29.7 37.8,29.7 46.4,13.6 	"/>
</g>
</svg>
